<svg version="1.1" xmlns="http://www.w3.org/2000/svg" viewBox="0 0 1395 961" preserveAspectRatio="xMidYMid meet" role="presentation" aria-hidden="true">
<style>
    .icon { fill: #000; }
    @media (prefers-color-scheme: dark) {
      .icon { fill: #fff; }
    }
  </style>
      <path class="icon" d="M0 0 C1.41485294 0.20084821 2.82973033 0.40152431 4.24462891 0.60205078 C84.23804949 12.10432969 160.15279508 42.44493229 225 91 C225.60134766 91.44827148 226.20269531 91.89654297 226.82226562 92.35839844 C235.15315395 98.59005386 243.1255458 105.20697084 251 112 C251.73992188 112.63808594 252.47984375 113.27617188 253.2421875 113.93359375 C255.17164964 115.61121846 257.08607379 117.30467863 259 119 C260.03761475 119.91036011 260.03761475 119.91036011 261.09619141 120.83911133 C267.7948382 126.77927431 274.16200447 133.00803473 280.47827148 139.34790039 C282.19207233 141.0670867 283.91119082 142.78082583 285.63085938 144.49414062 C291.3006762 150.16027369 296.82894447 155.86833825 302 162 C302.845625 162.96421875 303.69125 163.9284375 304.5625 164.921875 C312.87847405 174.57053719 320.47643591 184.72654171 328 195 C328.53802246 195.7326709 329.07604492 196.4653418 329.63037109 197.22021484 C341.68894508 213.72081672 352.25089032 231.13337532 361.94775391 249.11328125 C363.24509064 251.43945718 364.62964589 253.71607648 366 256 C366.495 128.29 366.495 128.29 367 -2 C419.53576865 -2 419.53576865 -2 443 2 C444.27552734 2.21430664 445.55105469 2.42861328 446.86523438 2.64941406 C488.08016984 9.73871318 527.92945294 21.67484406 566 39 C567.0430127 39.47405273 568.08602539 39.94810547 569.16064453 40.43652344 C599.24184227 54.23506887 627.51328453 71.16777647 654 91 C654.60134766 91.44827148 655.20269531 91.89654297 655.82226562 92.35839844 C664.15315395 98.59005386 672.1255458 105.20697084 680 112 C680.73992187 112.63808594 681.47984375 113.27617188 682.2421875 113.93359375 C684.17164964 115.61121846 686.08607379 117.30467863 688 119 C689.03761475 119.91036011 689.03761475 119.91036011 690.09619141 120.83911133 C696.7948382 126.77927431 703.16200447 133.00803473 709.47827148 139.34790039 C711.19207233 141.0670867 712.91119082 142.78082583 714.63085938 144.49414062 C720.3006762 150.16027369 725.82894447 155.86833825 731 162 C731.845625 162.96421875 732.69125 163.9284375 733.5625 164.921875 C741.87847405 174.57053719 749.47643591 184.72654171 757 195 C757.53802246 195.7326709 758.07604492 196.4653418 758.63037109 197.22021484 C770.5905968 213.58623979 781.16029683 230.85383988 790.75976562 248.70019531 C791.60108094 250.26027214 792.44896537 251.81682081 793.30273438 253.37011719 C820.9252041 303.63494712 836.90161448 359.44906248 845 416 C845.18079102 417.23266602 845.36158203 418.46533203 845.54785156 419.73535156 C851.00064362 458.8371825 850.70745594 501.95546311 845 541 C844.79925505 542.41633245 844.59857419 543.83267399 844.39794922 545.24902344 C832.89670472 625.2401844 802.55323392 701.15524418 754 766 C753.32759277 766.90202148 753.32759277 766.90202148 752.64160156 767.82226562 C746.40994614 776.15315395 739.79302916 784.1255458 733 792 C732.36191406 792.73992188 731.72382812 793.47984375 731.06640625 794.2421875 C729.38878154 796.17164964 727.69532137 798.08607379 726 800 C725.39309326 800.69174316 724.78618652 801.38348633 724.16088867 802.09619141 C718.22072569 808.7948382 711.99196527 815.16200447 705.65209961 821.47827148 C703.9329133 823.19207233 702.21917417 824.91119082 700.50585938 826.63085938 C694.83972631 832.3006762 689.13166175 837.82894447 683 843 C682.03578125 843.845625 681.0715625 844.69125 680.078125 845.5625 C670.42946281 853.87847405 660.27345829 861.47643591 650 869 C649.2673291 869.53802246 648.5346582 870.07604492 647.77978516 870.63037109 C631.41376021 882.5905968 614.14616012 893.16029683 596.29980469 902.75976562 C594.73972786 903.60108094 593.18317919 904.44896537 591.62988281 905.30273438 C546.729997 929.97695963 496.74324224 945.89263239 446.3125 954.3125 C445.20977753 954.49743011 445.20977753 954.49743011 444.08477783 954.68609619 C435.88833884 956.04684346 427.68107903 957.21704336 419.42578125 958.16015625 C418.70223953 958.24421219 417.97869781 958.32826813 417.23323059 958.41487122 C410.48064472 959.15030909 403.79063912 959.19651367 397 959 C397 959.66 397 960.32 397 961 C387.1 961 377.2 961 367 961 C366.67 875.2 366.34 789.4 366 701 C359.07 713.375 359.07 713.375 352 726 C343.50006522 739.7653811 334.68819322 753.06103646 325 766 C324.32759277 766.90202148 324.32759277 766.90202148 323.64160156 767.82226562 C317.40994614 776.15315395 310.79302916 784.1255458 304 792 C303.36191406 792.73992188 302.72382812 793.47984375 302.06640625 794.2421875 C300.38878154 796.17164964 298.69532137 798.08607379 297 800 C296.39309326 800.69174316 295.78618652 801.38348633 295.16088867 802.09619141 C289.22072569 808.7948382 282.99196527 815.16200447 276.65209961 821.47827148 C274.9329133 823.19207233 273.21917417 824.91119082 271.50585938 826.63085938 C265.83972631 832.3006762 260.13166175 837.82894447 254 843 C253.03578125 843.845625 252.0715625 844.69125 251.078125 845.5625 C241.42946281 853.87847405 231.27345829 861.47643591 221 869 C220.2673291 869.53802246 219.5346582 870.07604492 218.77978516 870.63037109 C202.38633596 882.61063833 185.08795426 893.17665358 167.21826172 902.80273438 C164.98433988 904.00845226 162.75989375 905.23056078 160.53515625 906.453125 C139.24877234 918.03133061 116.85018428 927.01771423 94 935 C92.47004395 935.53536377 92.47004395 935.53536377 90.90917969 936.08154297 C62.04251465 946.04864155 32.27213469 952.42575149 2.07281494 956.70574951 C0.14714693 956.97911147 -1.77731466 957.26093539 -3.70166016 957.54345703 C-42.58978412 962.99830323 -86.22287255 962.84809524 -125 957 C-126.39898888 956.79862279 -127.79808276 956.59797414 -129.19726562 956.39794922 C-209.22851878 944.82662068 -285.09659085 914.59715125 -350 866 C-350.90202148 865.32759277 -350.90202148 865.32759277 -351.82226562 864.64160156 C-360.15315395 858.40994614 -368.1255458 851.79302916 -376 845 C-377.10988281 844.04287109 -377.10988281 844.04287109 -378.2421875 843.06640625 C-380.17164964 841.38878154 -382.08607379 839.69532137 -384 838 C-384.69174316 837.39309326 -385.38348633 836.78618652 -386.09619141 836.16088867 C-392.7948382 830.22072569 -399.16200447 823.99196527 -405.47827148 817.65209961 C-407.19207233 815.9329133 -408.91119082 814.21917417 -410.63085938 812.50585938 C-416.3006762 806.83972631 -421.82894447 801.13166175 -427 795 C-427.845625 794.03578125 -428.69125 793.0715625 -429.5625 792.078125 C-437.87847405 782.42946281 -445.47643591 772.27345829 -453 762 C-453.80703369 760.90099365 -453.80703369 760.90099365 -454.63037109 759.77978516 C-466.5905968 743.41376021 -477.16029683 726.14616012 -486.75976562 708.29980469 C-487.60108094 706.73972786 -488.44896537 705.18317919 -489.30273438 703.62988281 C-516.9252041 653.36505288 -532.90161448 597.55093752 -541 541 C-541.18079102 539.76733398 -541.36158203 538.53466797 -541.54785156 537.26464844 C-547.00064362 498.1628175 -546.70745594 455.04453689 -541 416 C-540.79925505 414.58366755 -540.59857419 413.16732601 -540.39794922 411.75097656 C-528.89670472 331.7598156 -498.55323392 255.84475582 -450 191 C-449.55172852 190.39865234 -449.10345703 189.79730469 -448.64160156 189.17773438 C-442.40994614 180.84684605 -435.79302916 172.8744542 -429 165 C-428.04287109 163.89011719 -428.04287109 163.89011719 -427.06640625 162.7578125 C-425.38878154 160.82835036 -423.69532137 158.91392621 -422 157 C-421.08963989 155.96238525 -421.08963989 155.96238525 -420.16088867 154.90380859 C-414.22072569 148.2051618 -407.99196527 141.83799553 -401.65209961 135.52172852 C-399.9329133 133.80792767 -398.21917417 132.08880918 -396.50585938 130.36914062 C-390.83972631 124.6993238 -385.13166175 119.17105553 -379 114 C-378.03578125 113.154375 -377.0715625 112.30875 -376.078125 111.4375 C-366.42946281 103.12152595 -356.27345829 95.52356409 -346 88 C-344.90099365 87.19296631 -344.90099365 87.19296631 -343.77978516 86.36962891 C-327.41376021 74.4094032 -310.14616012 63.83970317 -292.29980469 54.24023438 C-290.73972786 53.39891906 -289.18317919 52.55103463 -287.62988281 51.69726562 C-238.03525984 24.44310058 -182.88273804 8.37784202 -127.07275391 0.3013916 C-125.1737799 0.0252687 -123.27625791 -0.26079269 -121.37890625 -0.54785156 C-82.54643483 -6.19315015 -38.81305502 -5.69831556 0 0 Z " transform="translate(545,3)" />
    </svg>
